<svg width="372" height="52" viewBox="0 0 372 52" fill="none" xmlns="http://www.w3.org/2000/svg">
<path fill-rule="evenodd" clip-rule="evenodd" d="M29.8795 41.166L48.3451 51.2216L43.4448 32.2696L59.759 19.5181L38.2757 17.8736L29.8795 0L21.4834 17.8736L0 19.5181L16.3142 32.2696L11.414 51.2216L29.8795 41.166ZM107.94 41.166L126.405 51.2216L121.505 32.2696L137.819 19.5181L116.336 17.8736L107.94 0L99.5437 17.8736L78.0604 19.5181L94.3746 32.2696L89.4744 51.2216L107.94 41.166ZM204.466 51.2216L186 41.166L167.535 51.2216L172.435 32.2696L156.121 19.5181L177.604 17.8736L186 0L194.396 17.8736L215.88 19.5181L199.565 32.2696L204.466 51.2216ZM264.06 41.166L282.526 51.2216L277.625 32.2696L293.94 19.5181L272.456 17.8736L264.06 0L255.664 17.8736L234.181 19.5181L250.495 32.2696L245.595 51.2216L264.06 41.166ZM360.586 51.2216L342.12 41.166L323.655 51.2216L328.555 32.2696L312.241 19.5181L333.724 17.8736L342.12 0L350.517 17.8736L372 19.5181L355.686 32.2696L360.586 51.2216Z" fill="#F5A623"/>
<mask id="mask0" mask-type="alpha" maskUnits="userSpaceOnUse" x="0" y="0" width="372" height="52">
<path fill-rule="evenodd" clip-rule="evenodd" d="M29.8795 41.166L48.3451 51.2216L43.4448 32.2696L59.759 19.5181L38.2757 17.8736L29.8795 0L21.4834 17.8736L0 19.5181L16.3142 32.2696L11.414 51.2216L29.8795 41.166ZM107.94 41.166L126.405 51.2216L121.505 32.2696L137.819 19.5181L116.336 17.8736L107.94 0L99.5437 17.8736L78.0604 19.5181L94.3746 32.2696L89.4744 51.2216L107.94 41.166ZM204.466 51.2216L186 41.166L167.535 51.2216L172.435 32.2696L156.121 19.5181L177.604 17.8736L186 0L194.396 17.8736L215.88 19.5181L199.565 32.2696L204.466 51.2216ZM264.06 41.166L282.526 51.2216L277.625 32.2696L293.94 19.5181L272.456 17.8736L264.06 0L255.664 17.8736L234.181 19.5181L250.495 32.2696L245.595 51.2216L264.06 41.166ZM360.586 51.2216L342.12 41.166L323.655 51.2216L328.555 32.2696L312.241 19.5181L333.724 17.8736L342.12 0L350.517 17.8736L372 19.5181L355.686 32.2696L360.586 51.2216Z" fill="white"/>
</mask>
<g mask="url(#mask0)">
<path d="M-11.7632 33H-14.7339V23.4902H-11.7632V33ZM-14.9097 21.0381C-14.9097 20.6162 -14.7574 20.2705 -14.4527 20.001C-14.148 19.7314 -13.7525 19.5967 -13.2661 19.5967C-12.7798 19.5967 -12.3843 19.7314 -12.0796 20.001C-11.7749 20.2705 -11.6226 20.6162 -11.6226 21.0381C-11.6226 21.46 -11.7749 21.8057 -12.0796 22.0752C-12.3843 22.3447 -12.7798 22.4795 -13.2661 22.4795C-13.7525 22.4795 -14.148 22.3447 -14.4527 22.0752C-14.7574 21.8057 -14.9097 21.46 -14.9097 21.0381ZM-6.80618 33H-9.77689V23.4902H-6.80618V33ZM-9.95267 21.0381C-9.95267 20.6162 -9.80032 20.2705 -9.49564 20.001C-9.19095 19.7314 -8.79544 19.5967 -8.30911 19.5967C-7.82278 19.5967 -7.42728 19.7314 -7.12259 20.001C-6.8179 20.2705 -6.66556 20.6162 -6.66556 21.0381C-6.66556 21.46 -6.8179 21.8057 -7.12259 22.0752C-7.42728 22.3447 -7.82278 22.4795 -8.30911 22.4795C-8.79544 22.4795 -9.19095 22.3447 -9.49564 22.0752C-9.80032 21.8057 -9.95267 21.46 -9.95267 21.0381ZM-1.84915 33H-4.81985V23.4902H-1.84915V33ZM-4.99564 21.0381C-4.99564 20.6162 -4.84329 20.2705 -4.5386 20.001C-4.23392 19.7314 -3.83841 19.5967 -3.35208 19.5967C-2.86575 19.5967 -2.47025 19.7314 -2.16556 20.001C-1.86087 20.2705 -1.70853 20.6162 -1.70853 21.0381C-1.70853 21.46 -1.86087 21.8057 -2.16556 22.0752C-2.47025 22.3447 -2.86575 22.4795 -3.35208 22.4795C-3.83841 22.4795 -4.23392 22.3447 -4.5386 22.0752C-4.84329 21.8057 -4.99564 21.46 -4.99564 21.0381ZM3.10788 33H0.137177V23.4902H3.10788V33ZM-0.0386047 21.0381C-0.0386047 20.6162 0.113739 20.2705 0.418427 20.001C0.723114 19.7314 1.11862 19.5967 1.60495 19.5967C2.09128 19.5967 2.48679 19.7314 2.79147 20.001C3.09616 20.2705 3.2485 20.6162 3.2485 21.0381C3.2485 21.46 3.09616 21.8057 2.79147 22.0752C2.48679 22.3447 2.09128 22.4795 1.60495 22.4795C1.11862 22.4795 0.723114 22.3447 0.418427 22.0752C0.113739 21.8057 -0.0386047 21.46 -0.0386047 21.0381ZM8.06491 33H5.09421V23.4902H8.06491V33ZM4.91843 21.0381C4.91843 20.6162 5.07077 20.2705 5.37546 20.001C5.68015 19.7314 6.07565 19.5967 6.56198 19.5967C7.04831 19.5967 7.44382 19.7314 7.7485 20.001C8.05319 20.2705 8.20554 20.6162 8.20554 21.0381C8.20554 21.46 8.05319 21.8057 7.7485 22.0752C7.44382 22.3447 7.04831 22.4795 6.56198 22.4795C6.07565 22.4795 5.68015 22.3447 5.37546 22.0752C5.07077 21.8057 4.91843 21.46 4.91843 21.0381ZM13.0219 33H10.0512V23.4902H13.0219V33ZM9.87546 21.0381C9.87546 20.6162 10.0278 20.2705 10.3325 20.001C10.6372 19.7314 11.0327 19.5967 11.519 19.5967C12.0053 19.5967 12.4008 19.7314 12.7055 20.001C13.0102 20.2705 13.1626 20.6162 13.1626 21.0381C13.1626 21.46 13.0102 21.8057 12.7055 22.0752C12.4008 22.3447 12.0053 22.4795 11.519 22.4795C11.0327 22.4795 10.6372 22.3447 10.3325 22.0752C10.0278 21.8057 9.87546 21.46 9.87546 21.0381ZM17.979 33H15.0083V23.4902H17.979V33ZM14.8325 21.0381C14.8325 20.6162 14.9848 20.2705 15.2895 20.001C15.5942 19.7314 15.9897 19.5967 16.476 19.5967C16.9624 19.5967 17.3579 19.7314 17.6626 20.001C17.9673 20.2705 18.1196 20.6162 18.1196 21.0381C18.1196 21.46 17.9673 21.8057 17.6626 22.0752C17.3579 22.3447 16.9624 22.4795 16.476 22.4795C15.9897 22.4795 15.5942 22.3447 15.2895 22.0752C14.9848 21.8057 14.8325 21.46 14.8325 21.0381ZM22.936 33H19.9653V23.4902H22.936V33ZM19.7895 21.0381C19.7895 20.6162 19.9419 20.2705 20.2466 20.001C20.5512 19.7314 20.9467 19.5967 21.4331 19.5967C21.9194 19.5967 22.3149 19.7314 22.6196 20.001C22.9243 20.2705 23.0766 20.6162 23.0766 21.0381C23.0766 21.46 22.9243 21.8057 22.6196 22.0752C22.3149 22.3447 21.9194 22.4795 21.4331 22.4795C20.9467 22.4795 20.5512 22.3447 20.2466 22.0752C19.9419 21.8057 19.7895 21.46 19.7895 21.0381ZM27.893 33H24.9223V23.4902H27.893V33ZM24.7466 21.0381C24.7466 20.6162 24.8989 20.2705 25.2036 20.001C25.5083 19.7314 25.9038 19.5967 26.3901 19.5967C26.8764 19.5967 27.2719 19.7314 27.5766 20.001C27.8813 20.2705 28.0337 20.6162 28.0337 21.0381C28.0337 21.46 27.8813 21.8057 27.5766 22.0752C27.2719 22.3447 26.8764 22.4795 26.3901 22.4795C25.9038 22.4795 25.5083 22.3447 25.2036 22.0752C24.8989 21.8057 24.7466 21.46 24.7466 21.0381ZM32.8501 33H29.8794V23.4902H32.8501V33ZM29.7036 21.0381C29.7036 20.6162 29.8559 20.2705 30.1606 20.001C30.4653 19.7314 30.8608 19.5967 31.3471 19.5967C31.8335 19.5967 32.229 19.7314 32.5337 20.001C32.8383 20.2705 32.9907 20.6162 32.9907 21.0381C32.9907 21.46 32.8383 21.8057 32.5337 22.0752C32.229 22.3447 31.8335 22.4795 31.3471 22.4795C30.8608 22.4795 30.4653 22.3447 30.1606 22.0752C29.8559 21.8057 29.7036 21.46 29.7036 21.0381Z" fill="black"/>
<path d="M-11.7632 33V43.5H-1.26321V33H-11.7632ZM-14.7339 33H-25.2339V43.5H-14.7339V33ZM-14.7339 23.4902V12.9902H-25.2339V23.4902H-14.7339ZM-11.7632 23.4902H-1.26321V12.9902H-11.7632V23.4902ZM-11.7632 22.5H-14.7339V43.5H-11.7632V22.5ZM-4.23392 33V23.4902H-25.2339V33H-4.23392ZM-14.7339 33.9902H-11.7632V12.9902H-14.7339V33.9902ZM-22.2632 23.4902V33H-1.26321V23.4902H-22.2632ZM-4.4097 21.0381C-4.4097 22.1145 -4.61012 23.3875 -5.18704 24.6966C-5.76819 26.0154 -6.60108 27.0741 -7.49564 27.8654L-21.4097 12.1365C-24.0608 14.4817 -25.4097 17.7353 -25.4097 21.0381H-4.4097ZM-7.49564 27.8654C-9.47183 29.6136 -11.7168 30.0967 -13.2661 30.0967V9.09668C-15.7882 9.09668 -18.8241 9.84929 -21.4097 12.1365L-7.49564 27.8654ZM-13.2661 30.0967C-14.8155 30.0967 -17.0605 29.6136 -19.0366 27.8654L-5.12259 12.1365C-7.70816 9.84929 -10.7441 9.09668 -13.2661 9.09668V30.0967ZM-19.0366 27.8654C-19.9312 27.0741 -20.7641 26.0154 -21.3453 24.6966C-21.9222 23.3875 -22.1226 22.1145 -22.1226 21.0381H-1.12259C-1.12259 17.7353 -2.47153 14.4817 -5.12259 12.1365L-19.0366 27.8654ZM-22.1226 21.0381C-22.1226 19.9617 -21.9222 18.6887 -21.3453 17.3796C-20.7641 16.0608 -19.9312 15.0021 -19.0366 14.2107L-5.12259 29.9397C-2.47153 27.5945 -1.12259 24.3409 -1.12259 21.0381H-22.1226ZM-19.0366 14.2107C-17.0605 12.4626 -14.8155 11.9795 -13.2661 11.9795V32.9795C-10.7441 32.9795 -7.70816 32.2269 -5.12259 29.9397L-19.0366 14.2107ZM-13.2661 11.9795C-11.7168 11.9795 -9.47183 12.4626 -7.49564 14.2107L-21.4097 29.9397C-18.8241 32.2269 -15.7882 32.9795 -13.2661 32.9795V11.9795ZM-7.49564 14.2107C-6.60108 15.0021 -5.76819 16.0608 -5.18704 17.3796C-4.61012 18.6887 -4.4097 19.9617 -4.4097 21.0381H-25.4097C-25.4097 24.3409 -24.0608 27.5945 -21.4097 29.9397L-7.49564 14.2107ZM-6.80618 33V43.5H3.69382V33H-6.80618ZM-9.77689 33H-20.2769V43.5H-9.77689V33ZM-9.77689 23.4902V12.9902H-20.2769V23.4902H-9.77689ZM-6.80618 23.4902H3.69382V12.9902H-6.80618V23.4902ZM-6.80618 22.5H-9.77689V43.5H-6.80618V22.5ZM0.723114 33V23.4902H-20.2769V33H0.723114ZM-9.77689 33.9902H-6.80618V12.9902H-9.77689V33.9902ZM-17.3062 23.4902V33H3.69382V23.4902H-17.3062ZM0.547333 21.0381C0.547333 22.1145 0.34691 23.3875 -0.230004 24.6966C-0.811154 26.0154 -1.64404 27.0741 -2.53861 27.8654L-16.4527 12.1365C-19.1037 14.4817 -20.4527 17.7353 -20.4527 21.0381H0.547333ZM-2.53861 27.8654C-4.5148 29.6136 -6.75973 30.0967 -8.30911 30.0967V9.09668C-10.8312 9.09668 -13.8671 9.84929 -16.4527 12.1365L-2.53861 27.8654ZM-8.30911 30.0967C-9.8585 30.0967 -12.1034 29.6136 -14.0796 27.8654L-0.165564 12.1365C-2.75112 9.84929 -5.78707 9.09668 -8.30911 9.09668V30.0967ZM-14.0796 27.8654C-14.9742 27.0741 -15.8071 26.0154 -16.3882 24.6966C-16.9651 23.3875 -17.1656 22.1145 -17.1656 21.0381H3.83444C3.83444 17.7353 2.4855 14.4817 -0.165564 12.1365L-14.0796 27.8654ZM-17.1656 21.0381C-17.1656 19.9617 -16.9651 18.6887 -16.3882 17.3796C-15.8071 16.0608 -14.9742 15.0021 -14.0796 14.2107L-0.165564 29.9397C2.4855 27.5945 3.83444 24.3409 3.83444 21.0381H-17.1656ZM-14.0796 14.2107C-12.1034 12.4626 -9.8585 11.9795 -8.30911 11.9795V32.9795C-5.78707 32.9795 -2.75112 32.2269 -0.165564 29.9397L-14.0796 14.2107ZM-8.30911 11.9795C-6.75973 11.9795 -4.5148 12.4626 -2.53861 14.2107L-16.4527 29.9397C-13.8671 32.2269 -10.8312 32.9795 -8.30911 32.9795V11.9795ZM-2.53861 14.2107C-1.64404 15.0021 -0.811154 16.0608 -0.230004 17.3796C0.34691 18.6887 0.547333 19.9617 0.547333 21.0381H-20.4527C-20.4527 24.3409 -19.1037 27.5945 -16.4527 29.9397L-2.53861 14.2107ZM-1.84915 33V43.5H8.65085V33H-1.84915ZM-4.81985 33H-15.3199V43.5H-4.81985V33ZM-4.81985 23.4902V12.9902H-15.3199V23.4902H-4.81985ZM-1.84915 23.4902H8.65085V12.9902H-1.84915V23.4902ZM-1.84915 22.5H-4.81985V43.5H-1.84915V22.5ZM5.68015 33V23.4902H-15.3199V33H5.68015ZM-4.81985 33.9902H-1.84915V12.9902H-4.81985V33.9902ZM-12.3492 23.4902V33H8.65085V23.4902H-12.3492ZM5.50436 21.0381C5.50436 22.1145 5.30394 23.3875 4.72703 24.6966C4.14588 26.0154 3.31299 27.0741 2.41842 27.8654L-11.4956 12.1365C-14.1467 14.4817 -15.4956 17.7353 -15.4956 21.0381H5.50436ZM2.41842 27.8654C0.442236 29.6136 -1.8027 30.0967 -3.35208 30.0967V9.09668C-5.87412 9.09668 -8.91007 9.84929 -11.4956 12.1365L2.41842 27.8654ZM-3.35208 30.0967C-4.90146 30.0967 -7.1464 29.6136 -9.12258 27.8654L4.79147 12.1365C2.20591 9.84929 -0.830042 9.09668 -3.35208 9.09668V30.0967ZM-9.12258 27.8654C-10.0171 27.0741 -10.85 26.0154 -11.4312 24.6966C-12.0081 23.3875 -12.2085 22.1145 -12.2085 21.0381H8.79147C8.79147 17.7353 7.44253 14.4817 4.79147 12.1365L-9.12258 27.8654ZM-12.2085 21.0381C-12.2085 19.9617 -12.0081 18.6887 -11.4312 17.3796C-10.85 16.0608 -10.0171 15.0021 -9.12258 14.2107L4.79147 29.9397C7.44253 27.5945 8.79147 24.3409 8.79147 21.0381H-12.2085ZM-9.12258 14.2107C-7.1464 12.4626 -4.90146 11.9795 -3.35208 11.9795V32.9795C-0.830042 32.9795 2.20591 32.2269 4.79147 29.9397L-9.12258 14.2107ZM-3.35208 11.9795C-1.8027 11.9795 0.442236 12.4626 2.41842 14.2107L-11.4956 29.9397C-8.91007 32.2269 -5.87412 32.9795 -3.35208 32.9795V11.9795ZM2.41842 14.2107C3.31299 15.0021 4.14588 16.0608 4.72703 17.3796C5.30394 18.6887 5.50436 19.9617 5.50436 21.0381H-15.4956C-15.4956 24.3409 -14.1467 27.5945 -11.4956 29.9397L2.41842 14.2107ZM3.10788 33V43.5H13.6079V33H3.10788ZM0.137177 33H-10.3628V43.5H0.137177V33ZM0.137177 23.4902V12.9902H-10.3628V23.4902H0.137177ZM3.10788 23.4902H13.6079V12.9902H3.10788V23.4902ZM3.10788 22.5H0.137177V43.5H3.10788V22.5ZM10.6372 33V23.4902H-10.3628V33H10.6372ZM0.137177 33.9902H3.10788V12.9902H0.137177V33.9902ZM-7.39212 23.4902V33H13.6079V23.4902H-7.39212ZM10.4614 21.0381C10.4614 22.1145 10.261 23.3875 9.68406 24.6966C9.10291 26.0154 8.27002 27.0741 7.37545 27.8654L-6.5386 12.1365C-9.18967 14.4817 -10.5386 17.7353 -10.5386 21.0381H10.4614ZM7.37545 27.8654C5.39927 29.6136 3.15433 30.0967 1.60495 30.0967V9.09668C-0.917089 9.09668 -3.95304 9.84929 -6.5386 12.1365L7.37545 27.8654ZM1.60495 30.0967C0.0555668 30.0967 -2.18937 29.6136 -4.16555 27.8654L9.7485 12.1365C7.16294 9.84929 4.12699 9.09668 1.60495 9.09668V30.0967ZM-4.16555 27.8654C-5.06012 27.0741 -5.89301 26.0154 -6.47416 24.6966C-7.05107 23.3875 -7.2515 22.1145 -7.2515 21.0381H13.7485C13.7485 17.7353 12.3996 14.4817 9.7485 12.1365L-4.16555 27.8654ZM-7.2515 21.0381C-7.2515 19.9617 -7.05107 18.6887 -6.47416 17.3796C-5.89301 16.0608 -5.06012 15.0021 -4.16555 14.2107L9.7485 29.9397C12.3996 27.5945 13.7485 24.3409 13.7485 21.0381H-7.2515ZM-4.16555 14.2107C-2.18937 12.4626 0.0555668 11.9795 1.60495 11.9795V32.9795C4.12699 32.9795 7.16294 32.2269 9.7485 29.9397L-4.16555 14.2107ZM1.60495 11.9795C3.15433 11.9795 5.39927 12.4626 7.37545 14.2107L-6.5386 29.9397C-3.95304 32.2269 -0.917089 32.9795 1.60495 32.9795V11.9795ZM7.37545 14.2107C8.27002 15.0021 9.10291 16.0608 9.68406 17.3796C10.261 18.6887 10.4614 19.9617 10.4614 21.0381H-10.5386C-10.5386 24.3409 -9.18967 27.5945 -6.5386 29.9397L7.37545 14.2107ZM8.06491 33V43.5H18.5649V33H8.06491ZM5.09421 33H-5.40579V43.5H5.09421V33ZM5.09421 23.4902V12.9902H-5.40579V23.4902H5.09421ZM8.06491 23.4902H18.5649V12.9902H8.06491V23.4902ZM8.06491 22.5H5.09421V43.5H8.06491V22.5ZM15.5942 33V23.4902H-5.40579V33H15.5942ZM5.09421 33.9902H8.06491V12.9902H5.09421V33.9902ZM-2.43509 23.4902V33H18.5649V23.4902H-2.43509ZM15.4184 21.0381C15.4184 22.1145 15.218 23.3875 14.6411 24.6966C14.0599 26.0154 13.227 27.0741 12.3325 27.8654L-1.58157 12.1365C-4.23263 14.4817 -5.58157 17.7353 -5.58157 21.0381H15.4184ZM12.3325 27.8654C10.3563 29.6136 8.11136 30.0967 6.56198 30.0967V9.09668C4.03994 9.09668 1.00399 9.84929 -1.58157 12.1365L12.3325 27.8654ZM6.56198 30.0967C5.0126 30.0967 2.76766 29.6136 0.791479 27.8654L14.7055 12.1365C12.12 9.84929 9.08402 9.09668 6.56198 9.09668V30.0967ZM0.791479 27.8654C-0.103086 27.0741 -0.935977 26.0154 -1.51713 24.6966C-2.09404 23.3875 -2.29446 22.1145 -2.29446 21.0381H18.7055C18.7055 17.7353 17.3566 14.4817 14.7055 12.1365L0.791479 27.8654ZM-2.29446 21.0381C-2.29446 19.9617 -2.09404 18.6887 -1.51713 17.3796C-0.935977 16.0608 -0.103086 15.0021 0.791479 14.2107L14.7055 29.9397C17.3566 27.5945 18.7055 24.3409 18.7055 21.0381H-2.29446ZM0.791479 14.2107C2.76766 12.4626 5.0126 11.9795 6.56198 11.9795V32.9795C9.08402 32.9795 12.12 32.2269 14.7055 29.9397L0.791479 14.2107ZM6.56198 11.9795C8.11136 11.9795 10.3563 12.4626 12.3325 14.2107L-1.58157 29.9397C1.00399 32.2269 4.03994 32.9795 6.56198 32.9795V11.9795ZM12.3325 14.2107C13.227 15.0021 14.0599 16.0608 14.6411 17.3796C15.218 18.6887 15.4184 19.9617 15.4184 21.0381H-5.58157C-5.58157 24.3409 -4.23263 27.5945 -1.58157 29.9397L12.3325 14.2107ZM13.0219 33V43.5H23.5219V33H13.0219ZM10.0512 33H-0.448761V43.5H10.0512V33ZM10.0512 23.4902V12.9902H-0.448761V23.4902H10.0512ZM13.0219 23.4902H23.5219V12.9902H13.0219V23.4902ZM13.0219 22.5H10.0512V43.5H13.0219V22.5ZM20.5512 33V23.4902H-0.448761V33H20.5512ZM10.0512 33.9902H13.0219V12.9902H10.0512V33.9902ZM2.52194 23.4902V33H23.5219V23.4902H2.52194ZM20.3755 21.0381C20.3755 22.1145 20.175 23.3875 19.5981 24.6966C19.017 26.0154 18.1841 27.0741 17.2895 27.8654L3.37546 12.1365C0.724398 14.4817 -0.624542 17.7353 -0.624542 21.0381H20.3755ZM17.2895 27.8654C15.3133 29.6136 13.0684 30.0967 11.519 30.0967V9.09668C8.99697 9.09668 5.96102 9.84929 3.37546 12.1365L17.2895 27.8654ZM11.519 30.0967C9.96963 30.0967 7.7247 29.6136 5.74851 27.8654L19.6626 12.1365C17.077 9.84929 14.0411 9.09668 11.519 9.09668V30.0967ZM5.74851 27.8654C4.85394 27.0741 4.02106 26.0154 3.43991 24.6966C2.86299 23.3875 2.66257 22.1145 2.66257 21.0381H23.6626C23.6626 17.7353 22.3136 14.4817 19.6626 12.1365L5.74851 27.8654ZM2.66257 21.0381C2.66257 19.9617 2.86299 18.6887 3.43991 17.3796C4.02106 16.0608 4.85394 15.0021 5.74851 14.2107L19.6626 29.9397C22.3136 27.5945 23.6626 24.3409 23.6626 21.0381H2.66257ZM5.74851 14.2107C7.7247 12.4626 9.96963 11.9795 11.519 11.9795V32.9795C14.0411 32.9795 17.077 32.2269 19.6626 29.9397L5.74851 14.2107ZM11.519 11.9795C13.0684 11.9795 15.3133 12.4626 17.2895 14.2107L3.37546 29.9397C5.96102 32.2269 8.99697 32.9795 11.519 32.9795V11.9795ZM17.2895 14.2107C18.1841 15.0021 19.017 16.0608 19.5981 17.3796C20.175 18.6887 20.3755 19.9617 20.3755 21.0381H-0.624542C-0.624542 24.3409 0.724398 27.5945 3.37546 29.9397L17.2895 14.2107ZM17.979 33V43.5H28.479V33H17.979ZM15.0083 33H4.50827V43.5H15.0083V33ZM15.0083 23.4902V12.9902H4.50827V23.4902H15.0083ZM17.979 23.4902H28.479V12.9902H17.979V23.4902ZM17.979 22.5H15.0083V43.5H17.979V22.5ZM25.5083 33V23.4902H4.50827V33H25.5083ZM15.0083 33.9902H17.979V12.9902H15.0083V33.9902ZM7.47897 23.4902V33H28.479V23.4902H7.47897ZM25.3325 21.0381C25.3325 22.1145 25.1321 23.3875 24.5552 24.6966C23.974 26.0154 23.1411 27.0741 22.2465 27.8654L8.33249 12.1365C5.68143 14.4817 4.33249 17.7353 4.33249 21.0381H25.3325ZM22.2465 27.8654C20.2704 29.6136 18.0254 30.0967 16.476 30.0967V9.09668C13.954 9.09668 10.9181 9.84929 8.33249 12.1365L22.2465 27.8654ZM16.476 30.0967C14.9267 30.0967 12.6817 29.6136 10.7055 27.8654L24.6196 12.1365C22.034 9.84929 18.9981 9.09668 16.476 9.09668V30.0967ZM10.7055 27.8654C9.81098 27.0741 8.97809 26.0154 8.39694 24.6966C7.82002 23.3875 7.6196 22.1145 7.6196 21.0381H28.6196C28.6196 17.7353 27.2707 14.4817 24.6196 12.1365L10.7055 27.8654ZM7.6196 21.0381C7.6196 19.9617 7.82002 18.6887 8.39694 17.3796C8.97809 16.0608 9.81098 15.0021 10.7055 14.2107L24.6196 29.9397C27.2707 27.5945 28.6196 24.3409 28.6196 21.0381H7.6196ZM10.7055 14.2107C12.6817 12.4626 14.9267 11.9795 16.476 11.9795V32.9795C18.9981 32.9795 22.034 32.2269 24.6196 29.9397L10.7055 14.2107ZM16.476 11.9795C18.0254 11.9795 20.2704 12.4626 22.2465 14.2107L8.33249 29.9397C10.9181 32.2269 13.954 32.9795 16.476 32.9795V11.9795ZM22.2465 14.2107C23.1411 15.0021 23.974 16.0608 24.5552 17.3796C25.1321 18.6887 25.3325 19.9617 25.3325 21.0381H4.33249C4.33249 24.3409 5.68143 27.5945 8.33249 29.9397L22.2465 14.2107ZM22.936 33V43.5H33.436V33H22.936ZM19.9653 33H9.4653V43.5H19.9653V33ZM19.9653 23.4902V12.9902H9.4653V23.4902H19.9653ZM22.936 23.4902H33.436V12.9902H22.936V23.4902ZM22.936 22.5H19.9653V43.5H22.936V22.5ZM30.4653 33V23.4902H9.4653V33H30.4653ZM19.9653 33.9902H22.936V12.9902H19.9653V33.9902ZM12.436 23.4902V33H33.436V23.4902H12.436ZM30.2895 21.0381C30.2895 22.1145 30.0891 23.3875 29.5122 24.6966C28.931 26.0154 28.0981 27.0741 27.2036 27.8654L13.2895 12.1365C10.6385 14.4817 9.28952 17.7353 9.28952 21.0381H30.2895ZM27.2036 27.8654C25.2274 29.6136 22.9825 30.0967 21.4331 30.0967V9.09668C18.911 9.09668 15.8751 9.84929 13.2895 12.1365L27.2036 27.8654ZM21.4331 30.0967C19.8837 30.0967 17.6388 29.6136 15.6626 27.8654L29.5766 12.1365C26.9911 9.84929 23.9551 9.09668 21.4331 9.09668V30.0967ZM15.6626 27.8654C14.768 27.0741 13.9351 26.0154 13.354 24.6966C12.7771 23.3875 12.5766 22.1145 12.5766 21.0381H33.5766C33.5766 17.7353 32.2277 14.4817 29.5766 12.1365L15.6626 27.8654ZM12.5766 21.0381C12.5766 19.9617 12.7771 18.6887 13.354 17.3796C13.9351 16.0608 14.768 15.0021 15.6626 14.2107L29.5766 29.9397C32.2277 27.5945 33.5766 24.3409 33.5766 21.0381H12.5766ZM15.6626 14.2107C17.6388 12.4626 19.8837 11.9795 21.4331 11.9795V32.9795C23.9551 32.9795 26.9911 32.2269 29.5766 29.9397L15.6626 14.2107ZM21.4331 11.9795C22.9825 11.9795 25.2274 12.4626 27.2036 14.2107L13.2895 29.9397C15.8751 32.2269 18.911 32.9795 21.4331 32.9795V11.9795ZM27.2036 14.2107C28.0981 15.0021 28.931 16.0608 29.5122 17.3796C30.0891 18.6887 30.2895 19.9617 30.2895 21.0381H9.28952C9.28952 24.3409 10.6385 27.5945 13.2895 29.9397L27.2036 14.2107ZM27.893 33V43.5H38.393V33H27.893ZM24.9223 33H14.4223V43.5H24.9223V33ZM24.9223 23.4902V12.9902H14.4223V23.4902H24.9223ZM27.893 23.4902H38.393V12.9902H27.893V23.4902ZM27.893 22.5H24.9223V43.5H27.893V22.5ZM35.4223 33V23.4902H14.4223V33H35.4223ZM24.9223 33.9902H27.893V12.9902H24.9223V33.9902ZM17.393 23.4902V33H38.393V23.4902H17.393ZM35.2466 21.0381C35.2466 22.1145 35.0461 23.3875 34.4692 24.6966C33.8881 26.0154 33.0552 27.0741 32.1606 27.8654L18.2466 12.1365C15.5955 14.4817 14.2466 17.7353 14.2466 21.0381H35.2466ZM32.1606 27.8654C30.1844 29.6136 27.9395 30.0967 26.3901 30.0967V9.09668C23.8681 9.09668 20.8321 9.84929 18.2466 12.1365L32.1606 27.8654ZM26.3901 30.0967C24.8407 30.0967 22.5958 29.6136 20.6196 27.8654L34.5337 12.1365C31.9481 9.84929 28.9121 9.09668 26.3901 9.09668V30.0967ZM20.6196 27.8654C19.725 27.0741 18.8921 26.0154 18.311 24.6966C17.7341 23.3875 17.5337 22.1145 17.5337 21.0381H38.5337C38.5337 17.7353 37.1847 14.4817 34.5337 12.1365L20.6196 27.8654ZM17.5337 21.0381C17.5337 19.9617 17.7341 18.6887 18.311 17.3796C18.8921 16.0608 19.725 15.0021 20.6196 14.2107L34.5337 29.9397C37.1847 27.5945 38.5337 24.3409 38.5337 21.0381H17.5337ZM20.6196 14.2107C22.5958 12.4626 24.8407 11.9795 26.3901 11.9795V32.9795C28.9121 32.9795 31.9481 32.2269 34.5337 29.9397L20.6196 14.2107ZM26.3901 11.9795C27.9395 11.9795 30.1844 12.4626 32.1606 14.2107L18.2466 29.9397C20.8321 32.2269 23.8681 32.9795 26.3901 32.9795V11.9795ZM32.1606 14.2107C33.0552 15.0021 33.8881 16.0608 34.4692 17.3796C35.0461 18.6887 35.2466 19.9617 35.2466 21.0381H14.2466C14.2466 24.3409 15.5955 27.5945 18.2466 29.9397L32.1606 14.2107ZM32.8501 33V43.5H43.3501V33H32.8501ZM29.8794 33H19.3794V43.5H29.8794V33ZM29.8794 23.4902V12.9902H19.3794V23.4902H29.8794ZM32.8501 23.4902H43.3501V12.9902H32.8501V23.4902ZM32.8501 22.5H29.8794V43.5H32.8501V22.5ZM40.3794 33V23.4902H19.3794V33H40.3794ZM29.8794 33.9902H32.8501V12.9902H29.8794V33.9902ZM22.3501 23.4902V33H43.3501V23.4902H22.3501ZM40.2036 21.0381C40.2036 22.1145 40.0032 23.3875 39.4262 24.6966C38.8451 26.0154 38.0122 27.0741 37.1176 27.8654L23.2036 12.1365C20.5525 14.4817 19.2036 17.7353 19.2036 21.0381H40.2036ZM37.1176 27.8654C35.1415 29.6136 32.8965 30.0967 31.3471 30.0967V9.09668C28.8251 9.09668 25.7892 9.84929 23.2036 12.1365L37.1176 27.8654ZM31.3471 30.0967C29.7978 30.0967 27.5528 29.6136 25.5766 27.8654L39.4907 12.1365C36.9051 9.84929 33.8692 9.09668 31.3471 9.09668V30.0967ZM25.5766 27.8654C24.6821 27.0741 23.8492 26.0154 23.268 24.6966C22.6911 23.3875 22.4907 22.1145 22.4907 21.0381H43.4907C43.4907 17.7353 42.1418 14.4817 39.4907 12.1365L25.5766 27.8654ZM22.4907 21.0381C22.4907 19.9617 22.6911 18.6887 23.268 17.3796C23.8492 16.0608 24.6821 15.0021 25.5766 14.2107L39.4907 29.9397C42.1418 27.5945 43.4907 24.3409 43.4907 21.0381H22.4907ZM25.5766 14.2107C27.5528 12.4626 29.7978 11.9795 31.3471 11.9795V32.9795C33.8692 32.9795 36.9051 32.2269 39.4907 29.9397L25.5766 14.2107ZM31.3471 11.9795C32.8965 11.9795 35.1415 12.4626 37.1176 14.2107L23.2036 29.9397C25.7892 32.2269 28.8251 32.9795 31.3471 32.9795V11.9795ZM37.1176 14.2107C38.0122 15.0021 38.8451 16.0608 39.4262 17.3796C40.0032 18.6887 40.2036 19.9617 40.2036 21.0381H19.2036C19.2036 24.3409 20.5525 27.5945 23.2036 29.9397L37.1176 14.2107Z" fill="#F5A623"/>
</g>
</svg>
